<?xml version="1.0" standalone="no"?><!DOCTYPE svg PUBLIC "-//W3C//DTD SVG 1.1//EN" "http://www.w3.org/Graphics/SVG/1.1/DTD/svg11.dtd"><svg t="1690164546829" class="icon" viewBox="0 0 1024 1024" version="1.1" xmlns="http://www.w3.org/2000/svg" p-id="2296" xmlns:xlink="http://www.w3.org/1999/xlink" width="200" height="200"><path d="M992 576H32c-17.6 0-32 14.4-32 32v64c0 17.6 14.4 32 32 32h960c17.6 0 32-14.4 32-32v-64c0-17.6-14.4-32-32-32z m0-256H32c-17.6 0-32 14.4-32 32v64c0 17.6 14.4 32 32 32h960c17.6 0 32-14.4 32-32v-64c0-17.6-14.4-32-32-32z" p-id="2297" fill="#8a8a8a"></path></svg>